<svg id="visual" viewBox="0 0 960 540" width="1080" height="720" xmlns="http://www.w3.org/2000/svg" xmlns:xlink="http://www.w3.org/1999/xlink" version="1.1"><rect x="0" y="0" width="960" height="540" fill="#020043"></rect><path d="M0 444L40 439.8C80 435.7 160 427.3 240 425.7C320 424 400 429 480 440C560 451 640 468 720 472C800 476 880 467 920 462.5L960 458L960 541L920 541C880 541 800 541 720 541C640 541 560 541 480 541C400 541 320 541 240 541C160 541 80 541 40 541L0 541Z" fill="#FFFFFF" stroke-linecap="round" stroke-linejoin="miter"></path></svg>