<svg id="visual" viewBox="0 0 960 540" width="960" height="540" xmlns="http://www.w3.org/2000/svg" xmlns:xlink="http://www.w3.org/1999/xlink" version="1.1"><rect x="0" y="0" width="960" height="540" fill="#e9e31f"></rect><path d="M0 66L20 62.5C40 59 80 52 120 48C160 44 200 43 240 47C280 51 320 60 360 60.2C400 60.3 440 51.7 480 48.2C520 44.7 560 46.3 600 47.8C640 49.3 680 50.7 720 51.5C760 52.3 800 52.7 840 51.5C880 50.3 920 47.7 940 46.3L960 45L960 0L940 0C920 0 880 0 840 0C800 0 760 0 720 0C680 0 640 0 600 0C560 0 520 0 480 0C440 0 400 0 360 0C320 0 280 0 240 0C200 0 160 0 120 0C80 0 40 0 20 0L0 0Z" fill="#fff" stroke-linecap="round" stroke-linejoin="miter"></path></svg>